<svg xmlns="http://www.w3.org/2000/svg" width="287" height="63" fill="#fff" fill-rule="evenodd"><path d="M0 8.54h9.683v54.454h9.553V8.54h9.64V.005H0V8.54zm59.744 18.696H49.98V.01h-9.557v62.988h9.557v-27.2h9.765v27.2h9.553V.01h-9.553v27.226zM83.65 63h26v-8.503H93.203V35.8h14.152v-8.57H93.203V8.537h16.437v-8.54h-26V63zM188.12.0h-9.553v62.988h26v-8.503H188.12V.01zm45.948 40.96h-8.696l4.344-29.232 4.352 29.232zm2.406-40.97h-13.48l-10.532 62.992h9.628l2.043-13.453h11.205l2 13.453h9.7L236.474.001zm31.207 35.804h3.616c1.522.0 2.58.107 3.154.316 2.043.687 2.994 2.03 2.994 4.224v9.573c0 3.123-1.542 4.575-4.85 4.575h-4.916V35.805zm6.782-8.858c-.607.2-1.67.288-3.166.288h-3.616V8.543h4.916c3.307.0 4.85 1.45 4.85 4.567v9.553c0 2.148-.986 3.55-2.982 4.283h0zM287 22.664V13.1C287 4.442 282.5.035 273.654.008h-15.526v62.988h14.83c9.32-.02 14.043-4.42 14.043-13.078v-9.573c0-3.675-2.027-6.648-6.035-8.843 4.008-2.175 6.035-5.144 6.035-8.84H287zm-146.163 14.83c2.533-2.4 2.65-4.454 2.533-5.455-.05-.348-.388-.65-.795-.66-2.996-.13-6.023 1.884-7.258 5.174-1.23 3.226-.376 6.68 1.868 8.618.174.127.372.17.582.1.17-.075.317-.257.297-.447-.27-3.53.9-5.495 2.774-7.328h0zm6.12-4.186c-.135-.146-.344-.194-.538-.162-.186.055-.328.2-.332.388-.2 1.532-.926 3.535-3.15 5.693-1.504 1.44-2.675 2.98-2 7.06.024.245.28.447.55.455 2.924-.012 5.762-2 6.957-5.178 1.187-3.044.5-6.28-1.476-8.254h0zm2.117-6.73a2.16 2.16.0 00.613 2.55 12.62 12.62.0 014.195 13.464c-1.96 6.687-9.03 10.523-15.742 8.567-6.688-1.995-10.5-9.058-8.524-15.744a12.58 12.58.0 0110.451-8.963c.044.0.087.016.127.016.934.0 1.797-.6 2.07-1.552l3.64-12.415 6.727 2-3.557 12.087zm9.15-14.937-15.45-4.57a2.16 2.16.0 00-2.683 1.457c-.336 1.144.317 2.348 1.46 2.684l.214.063-3.237 11.045a16.88 16.88.0 00-13.051 11.869c-2.663 8.96 2.46 18.43 11.44 21.1 1.595.463 3.2.685 4.784.685 7.356.0 14.155-4.794 16.323-12.166a16.91 16.91.0 00-4.503-17.055l3.25-11.05.23.07c.206.06.412.087.617.087a2.16 2.16.0 00.606-4.232h0z"/></svg>